<svg id="visual" viewBox="0 0 960 540" width="960" height="540" xmlns="http://www.w3.org/2000/svg" xmlns:xlink="http://www.w3.org/1999/xlink" version="1.1"><rect x="0" y="0" width="960" height="540" fill="#555"></rect><defs><linearGradient id="grad1_0" x1="43.8%" y1="100%" x2="100%" y2="0%"><stop offset="14.444444444444446%" stop-color="#555555" stop-opacity="1"></stop><stop offset="85.55555555555554%" stop-color="#555555" stop-opacity="1"></stop></linearGradient></defs><defs><linearGradient id="grad2_0" x1="0%" y1="100%" x2="56.3%" y2="0%"><stop offset="14.444444444444446%" stop-color="#555555" stop-opacity="1"></stop><stop offset="85.55555555555554%" stop-color="#555555" stop-opacity="1"></stop></linearGradient></defs><g transform="translate(960, 540)"><path d="M-351 0C-323.8 -30.4 -296.6 -60.8 -284.4 -92.4C-272.1 -124 -274.7 -156.9 -266.2 -193.4C-257.6 -229.9 -237.8 -269.9 -206.3 -284C-174.8 -298 -131.5 -286.1 -95.2 -292.9C-58.8 -299.8 -29.4 -325.4 0 -351L0 0Z" fill="#fa5"></path></g><g transform="translate(0, 0)"><path d="M351 0C336.8 32.1 322.7 64.1 315.8 102.6C308.8 141.1 309.2 186 284 206.3C258.8 226.7 208 222.5 176.9 243.5C145.8 264.5 134.4 310.8 108.2 332.9C81.9 355 41 353 0 351L0 0Z" fill="#fa5"></path></g></svg>