<svg xmlns="http://www.w3.org/2000/svg" width="512" height="512" viewBox="0 0 512 512" version="1.1"><path d="M 205 176 C 205 201.850, 204.733 223, 204.407 223 C 204.081 223, 201.044 220.484, 197.657 217.409 C 190.501 210.911, 175.278 203.111, 164.500 200.420 C 154.923 198.030, 135.962 198.047, 126.500 200.454 C 107.221 205.360, 89.457 217.848, 77.934 234.597 C 73.229 241.434, 67.428 254.445, 64.824 264 C 62.792 271.457, 62.507 274.770, 62.507 291 C 62.507 307.195, 62.794 310.551, 64.808 317.933 C 73.631 350.275, 97.090 374.299, 127 381.622 C 137.067 384.086, 155.955 384.083, 164.942 381.615 C 178.309 377.944, 188.990 371.884, 199.250 362.151 L 205 356.696 205 368.348 L 205 380 222.500 380 L 240 380 240 254.500 L 240 129 222.500 129 L 205 129 205 176 M 273.330 207.250 C 274.597 210.137, 291.573 250.200, 311.054 296.277 L 346.474 380.055 359.316 379.777 L 372.158 379.500 411.457 291 L 450.757 202.500 433.202 202.226 C 423.547 202.076, 415.323 202.301, 414.925 202.726 C 414.528 203.152, 402.384 231.400, 387.939 265.500 C 373.494 299.600, 361.395 327.830, 361.054 328.233 C 360.713 328.636, 355.182 316.036, 348.762 300.233 C 342.343 284.430, 330.713 255.863, 322.919 236.750 L 308.748 202 289.887 202 L 271.025 202 273.330 207.250 M 145 229.063 C 127.773 231.049, 113.071 241.794, 104.722 258.500 C 95.217 277.519, 95.124 304.519, 104.498 323.183 C 117.048 348.170, 142.072 359.084, 168.248 350.989 C 184.066 346.097, 197.603 330.968, 203.584 311.500 C 206.210 302.955, 206.210 279.045, 203.584 270.500 C 196.794 248.397, 179.273 231.470, 161.153 229.507 C 158.044 229.170, 154.600 228.764, 153.500 228.604 C 152.400 228.444, 148.575 228.651, 145 229.063" stroke="none" fill="#555454" fill-rule="evenodd"/><path d="M 38 1.379 C 25.380 4.869, 11.545 15.682, 5.761 26.575 C -0.374 38.127, -0.002 23.270, 0.024 255.960 C 0.040 393.104, 0.401 470.028, 1.043 472.808 C 3.920 485.286, 15.386 500.298, 26.575 506.239 C 38.127 512.374, 23.270 512.002, 255.960 511.976 C 393.104 511.960, 470.028 511.599, 472.808 510.957 C 489.160 507.186, 505.188 492.439, 509.604 477.102 C 510.492 474.021, 511.618 470.719, 512.109 469.764 C 513.276 467.490, 513.295 40.700, 512.128 41.421 C 511.648 41.718, 511.013 40.467, 510.717 38.642 C 508.980 27.941, 496.403 11.590, 485.425 5.761 C 473.868 -0.376, 488.805 -0.006, 255.540 0.067 C 88.868 0.120, 41.521 0.406, 38 1.379 M 0.491 256 C 0.491 373.975, 0.607 422.238, 0.750 363.250 C 0.892 304.263, 0.892 207.738, 0.750 148.750 C 0.607 89.763, 0.491 138.025, 0.491 256 M 205 176 C 205 201.850, 204.733 223, 204.407 223 C 204.081 223, 201.044 220.484, 197.657 217.409 C 190.501 210.911, 175.278 203.111, 164.500 200.420 C 154.923 198.030, 135.962 198.047, 126.500 200.454 C 107.221 205.360, 89.457 217.848, 77.934 234.597 C 73.229 241.434, 67.428 254.445, 64.824 264 C 62.792 271.457, 62.507 274.770, 62.507 291 C 62.507 307.195, 62.794 310.551, 64.808 317.933 C 73.631 350.275, 97.090 374.299, 127 381.622 C 137.067 384.086, 155.955 384.083, 164.942 381.615 C 178.309 377.944, 188.990 371.884, 199.250 362.151 L 205 356.696 205 368.348 L 205 380 222.500 380 L 240 380 240 254.500 L 240 129 222.500 129 L 205 129 205 176 M 273.330 207.250 C 274.597 210.137, 291.573 250.200, 311.054 296.277 L 346.474 380.055 359.316 379.777 L 372.158 379.500 411.457 291 L 450.757 202.500 433.202 202.226 C 423.547 202.076, 415.323 202.301, 414.925 202.726 C 414.528 203.152, 402.384 231.400, 387.939 265.500 C 373.494 299.600, 361.395 327.830, 361.054 328.233 C 360.713 328.636, 355.182 316.036, 348.762 300.233 C 342.343 284.430, 330.713 255.863, 322.919 236.750 L 308.748 202 289.887 202 L 271.025 202 273.330 207.250 M 145 229.063 C 127.773 231.049, 113.071 241.794, 104.722 258.500 C 95.217 277.519, 95.124 304.519, 104.498 323.183 C 117.048 348.170, 142.072 359.084, 168.248 350.989 C 184.066 346.097, 197.603 330.968, 203.584 311.500 C 206.210 302.955, 206.210 279.045, 203.584 270.500 C 196.794 248.397, 179.273 231.470, 161.153 229.507 C 158.044 229.170, 154.600 228.764, 153.500 228.604 C 152.400 228.444, 148.575 228.651, 145 229.063" stroke="none" fill="#fbab54" fill-rule="evenodd"/></svg>